<svg xmlns="http://www.w3.org/2000/svg" viewBox="0 0 512 512"><path d="M510.78,10.87a.5.5,0,0,0,0-.12,8.28,8.28,0,0,0-.25-1c0-.13-.08-.26-.13-.39s-.11-.27-.17-.4-.13-.27-.2-.4-.13-.24-.2-.36a5.81,5.81,0,0,0-.4-.61l-.2-.26-.43-.48a.52.52,0,0,0-.1-.11l-.15-.14-.29-.26L508,6.15l-.4-.29-.18-.12c-.17-.11-.35-.21-.54-.31l-.09,0a6.65,6.65,0,0,0-.61-.27l-.09,0-.56-.19-.22-.06c-.12,0-.24-.06-.37-.09l-.47-.09h-.1a6.88,6.88,0,0,0-1.28-.08c-3.5.12-5.24,2.11-7.88,5.14-6,6.83-24.1,27.63-54.17,37.6-15.55,5.14-26.12,4.67-43.62,3.89-5.86-.26-12.51-.55-20.31-.68C346,50,288,49.08,236.09,70.91c-23.13,9.72-44.77,24-64.43,42.55l-.42-.42a7.51,7.51,0,0,0-10.62,0L142.39,131.4,56.49,45l21-21.12a7.5,7.5,0,0,0-4-12.68L9.89.11A7.5,7.5,0,0,0,1.21,8.78L12.26,72.72a7.47,7.47,0,0,0,5.13,5.87,7.3,7.3,0,0,0,2.26.35A7.46,7.46,0,0,0,25,76.73L45.91,55.66,131.81,142l-19.12,19.23a7.52,7.52,0,0,0,0,10.6l1.07,1.06a214,214,0,0,0-33,54.22C59,279.36,60,337.61,60.46,368.91c.12,7.84.42,14.54.67,20.45.77,17.57,1.23,28.18-3.88,43.78-9.92,30.27-30.6,48.53-37.4,54.53-3,2.64-5,4.39-5.1,7.86a6.56,6.56,0,0,0,.08,1.33v.06c0,.15.05.29.08.44s.05.24.08.36l.06.22c.06.19.12.38.19.56l0,.08c.09.22.19.44.29.65h0a7.4,7.4,0,0,0,1.87,2.35l.14.11c.13.11.27.21.41.31l.24.15a2.5,2.5,0,0,0,.35.21,2.69,2.69,0,0,0,.29.16l.31.15.36.15.24.09.45.14h0a7.64,7.64,0,0,0,2.09.29,8.36,8.36,0,0,0,2-.24h0l353.23-50.52,56.89,57.2A7.52,7.52,0,0,0,439.8,512a7.66,7.66,0,0,0,2.95-.6,7.5,7.5,0,0,0,4.54-7.09l-1.46-57.19,56.83,1.47a7.5,7.5,0,0,0,5.51-12.79l-50.05-50.33L510.65,14.18h0A8,8,0,0,0,510.78,10.87Zm-486.22,45L17.8,16.72l38.92,6.8ZM241.91,84.73c49-20.6,104.92-19.71,135-19.23,7.57.12,14.1.41,19.86.67,18.57.82,30.83,1.36,49-4.64,3.18-1.05,6.23-2.21,9.17-3.45-15.56,13.11-36.84,27.1-63.08,35.1-13.58,4.15-21.95,4.78-32.54,5.57a239.85,239.85,0,0,0-32.16,4.16c-40.15,8-78.29,25.68-113.46,52.49l-31.39-31.34C200.55,106.93,220.57,93.71,241.91,84.73ZM166,129l42.3,42.22L170.9,208.76l-42.29-42.23ZM71.51,437.8c6-18.19,5.42-30.48,4.61-49.1-.25-5.81-.54-12.39-.66-20-.48-30.2-1.37-86.43,19.15-135.77a198.08,198.08,0,0,1,29.83-49.33l32.27,32.22c-22.14,32.18-37,66.77-44.13,102.91a246.71,246.71,0,0,0-4.1,32.2c-.8,10.69-1.43,19.14-5.58,32.85-8,26.32-21.82,47.67-34.83,63.3C69.3,444.09,70.46,441,71.51,437.8ZM52.64,483.92C75,464.78,104,432,117.26,388.09c4.62-15.29,5.38-25.38,6.18-36.07a228.89,228.89,0,0,1,3.86-30.43c6.6-33.4,20.22-65.46,40.48-95.41a7.49,7.49,0,0,0,3.14.69h0a7.44,7.44,0,0,0,5.3-2.21l18.88-19L358.52,370l1.59,62.1a7.51,7.51,0,0,0,2.18,5.1l2.11,2.12ZM375,428.74l-1.11-43.26,56.79,57.11,1.11,43.25Zm109.31,4.37-43-1.11-56.88-57.19,43,1.11Zm-39.49-61L436,363.21a7.48,7.48,0,0,0-5.12-2.21l-61.71-1.59L205.69,195.05l18.48-18.59a7.49,7.49,0,0,0,.2-10.36c32.9-24.73,68.42-41,105.7-48.49a225.44,225.44,0,0,1,30.34-3.9c10.61-.79,20.63-1.54,35.8-6.19,38.14-11.62,66.5-34.72,83.58-52,4.29-4.36,8.19-8.67,11.68-12.79Z"/></svg>