<svg xmlns="http://www.w3.org/2000/svg" viewBox="0 0 512 512"><path d="M500.51,427.22a38.82,38.82,0,0,0-24.83-11.5l-70.17-74.9,41-41.38a7.48,7.48,0,0,0,0-10.55l-18.28-18.46a7.5,7.5,0,0,0-9-1.26L370.65,296.4,318.21,239l149-138.65a7.47,7.47,0,0,0,2.38-5.1l3.66-70.13a7.5,7.5,0,0,0-7.89-7.88L395.85,20.9a7.49,7.49,0,0,0-5.14,2.43L256,170.85,121.29,23.33a7.49,7.49,0,0,0-5.14-2.43L46.68,17.21a7.5,7.5,0,0,0-7.89,7.88l3.66,70.13a7.47,7.47,0,0,0,2.38,5.1L193.79,239,141.35,296.4,92.79,269.17a7.5,7.5,0,0,0-9,1.26L65.51,288.89a7.48,7.48,0,0,0,0,10.55l41,41.38-70.17,74.9a38.82,38.82,0,0,0-24.83,11.5,39.87,39.87,0,0,0,0,56,39.1,39.1,0,0,0,55.63,0,39.63,39.63,0,0,0,11.34-25l74.13-70.8,40.89,41.28a7.51,7.51,0,0,0,10.66,0l18.28-18.46a7.5,7.5,0,0,0,1.24-8.89l-27-49.07L256,296.87l59.38,55.27-27,49.15a7.5,7.5,0,0,0,1.24,8.89l18.28,18.46a7.51,7.51,0,0,0,10.66,0l40.89-41.28,74.13,70.8a39.63,39.63,0,0,0,11.34,25,39.1,39.1,0,0,0,55.63,0A39.87,39.87,0,0,0,500.51,427.22ZM399.71,35.71l58.08-3.08-3.06,58.78L308.09,227.89l-15.87-17.38L413.32,88.25A7.5,7.5,0,0,0,402.66,77.7L282.09,199.42,266.16,182ZM204.77,249.19l14.58,13.57-49.28,49.75-15.29-8.57ZM56.46,472.62a24.1,24.1,0,0,1-34.32,0,24.84,24.84,0,0,1,0-34.84,24.07,24.07,0,0,1,34.32,0A24.84,24.84,0,0,1,56.46,472.62Zm19.17-32.5a39.49,39.49,0,0,0-21.4-21.58l62.83-67.06,25,25.22Zm132.19-36.51-9,9.09L81.39,294.16l9-9.12,75.42,42.3ZM189.2,338.66l-8.54-15.52L230.34,273,245,286.63ZM209.4,233h0L57.27,91.41,54.21,32.63l58.08,3.08L357.22,303.94l-15.29,8.57L109.34,77.7A7.5,7.5,0,0,0,98.68,88.25L331.34,323.14l-8.5,15.45ZM313.19,412.7l-9-9.09,42-76.27L421.57,285l9,9.12Zm123.18,27.42L370,376.7l25-25.22,62.83,67.06a39.49,39.49,0,0,0-21.4,21.58Zm53.49,32.5a24.1,24.1,0,0,1-34.32,0,24.84,24.84,0,0,1,0-34.84,24.07,24.07,0,0,1,34.32,0A24.84,24.84,0,0,1,489.86,472.62Z"/></svg>