<svg xmlns="http://www.w3.org/2000/svg" viewBox="0 0 512 512"><path d="M303,331.76a7.5,7.5,0,0,0,7.5-7.5V312a7.5,7.5,0,0,0-15,0v12.27A7.5,7.5,0,0,0,303,331.76ZM161.88,293.81a7.5,7.5,0,0,0-7.5,7.5v30.42a7.5,7.5,0,0,0,15,0V301.31A7.5,7.5,0,0,0,161.88,293.81Zm49,2.17v44.29a7.5,7.5,0,0,0,15,0V296a7.5,7.5,0,0,0-15,0Zm64,43.25a7.5,7.5,0,0,0,7.5-7.5V301.31a7.5,7.5,0,0,0-15,0v30.42A7.5,7.5,0,0,0,274.8,339.23ZM408,18.27a7.5,7.5,0,0,0-13.69,3.2c-2.63,20.67-18.43,40.69-37.57,47.58-9.85,3.55-24.6,5-38.87-8.39-6.21-5.82-11.57-13.11-17.25-20.84-10.74-14.61-21.85-29.73-40.11-36.38-19.3-7.06-44-2.86-60.12,10.22-13.5,11-21.54,28.6-22.65,49.65-1.12,21.22,5.14,44.15,17.63,64.56.14.22.3.42.45.63a25.46,25.46,0,0,0-3.54,12.95v15l-11,4.21a112,112,0,0,0-72.14,104.43v9.68l-4.28.64a7.5,7.5,0,0,0-6.39,7.42v58.93a7.47,7.47,0,0,0,4.68,6.93l-16,88A7.49,7.49,0,0,0,91,444.65L213.62,511a9,9,0,0,0,.94.44l.05,0a6.77,6.77,0,0,0,.8.25l.1,0a7.17,7.17,0,0,0,.83.15h0a9.07,9.07,0,0,0,.91.06,8.87,8.87,0,0,0,.9-.06h.05a7.58,7.58,0,0,0,.83-.15l.1,0a7.41,7.41,0,0,0,.8-.25l.05,0A7.9,7.9,0,0,0,221,511l122.59-66.35a7.51,7.51,0,0,0,3.81-7.93l-16-88a7.49,7.49,0,0,0,4.68-6.93V282.85a7.5,7.5,0,0,0-6.4-7.42l-4.27-.64v-9.7a112,112,0,0,0-72.13-104.4l-10-3.84V141.52c11.84-10.2,23.11-14.92,33.51-14,11.27,1,18.54,8.87,27,18,7.26,7.89,14.75,16,25.62,20.45a42.24,42.24,0,0,0,15.86,3c11.12,0,23.16-3.92,34.73-11.53A100,100,0,0,0,408,18.27ZM124.18,265.12a97.53,97.53,0,0,1,62.49-90.43l23.12-8.87v94l-85.61,12.78Zm83.11-114.3v-9.37a10.49,10.49,0,0,1,4.7-8.74,10.36,10.36,0,0,1,5.8-1.76,10.49,10.49,0,0,1,10.31,8.55,9.84,9.84,0,0,1,.19,1.95v9.69A34.39,34.39,0,0,0,207.29,150.82ZM103,434.05l14.5-80,48,17.89-30.65,79.33Zm106.83,57.82L148.1,458.48l31.42-81.28,30.27,11.29Zm15,0V388.49l32.16-12,31.32,81ZM331.62,434l-30.05,16.27L271,371.25l46.1-17.19Zm-10.55-97.47-62.4,23.27-.1,0-.05,0-41.23,15.37-103.78-38.7V289.31l103.78-15.48,103.78,15.48ZM247.92,174.7a97.53,97.53,0,0,1,62.48,90.41v7.45l-85.61-12.78v-94Zm160.35-84a85.52,85.52,0,0,1-36.57,54.25c-6.23,4.09-22.28,13-36.69,7.15-7.74-3.13-13.79-9.72-20.2-16.69-9.21-10-19.65-21.37-36.74-22.83-13-1.11-26.38,3.52-39.8,13.74a25.42,25.42,0,0,0-30.87-8.1L207,118c-22.45-38.37-16.34-77,2.91-92.68,10.3-8.38,29.24-13.74,45.51-7.78,14,5.1,23.32,17.77,33.18,31.18,5.83,7.93,11.86,16.13,19.08,22.9,15.45,14.48,34.7,18.58,54.21,11.55,18.42-6.63,34-22.16,42-40.64A85.43,85.43,0,0,1,408.27,90.66ZM246.57,346.17a7.5,7.5,0,0,0,7.5-7.5V296a7.5,7.5,0,0,0-15,0v42.69A7.5,7.5,0,0,0,246.57,346.17ZM133.65,304.49a7.5,7.5,0,0,0-7.5,7.5v12.27a7.5,7.5,0,0,0,15,0V312A7.5,7.5,0,0,0,133.65,304.49Zm56.46-16a7.5,7.5,0,0,0-7.5,7.5v42.69a7.5,7.5,0,0,0,15,0V296A7.5,7.5,0,0,0,190.11,288.48Z"/></svg>